<svg xmlns="http://www.w3.org/2000/svg" viewBox="0 0 640 400" width="640" height="400" role="img" aria-label="James stands easy by the run board with a coffee, one open hand toward the plan; John is sunk into the sofa with his feet up, reading a diff on a tablet. A calm lounge: a paper globe lamp, a big plant, a sunset window.">
  <title>James and John's Coworking Space</title>
  <!-- Owner 2026-10-06: "like Cheech and Chong meets corporate world. so clean and collected, but cool and calming", then
       23:07 CDT: "James and john should look less blocky, more like the late 90s comic book cartoon era". So: bold ink
       outlines and flat cel shading (one hard shadow shape per form), smooth figures in an isometric lounge. The vibe of an
       easy-going duo, never a likeness of anyone real. Colour by fill and stroke attributes only. -->
  <rect width="640" height="400" fill="#CBD9D3"/>
  <!-- the room -->
  <polygon points="20,350 320,200 320,20 20,170" fill="#DCE5E0"/>
  <polygon points="320,200 620,350 620,170 320,20" fill="#C6D3CD"/>
  <polygon points="320,200 620,350 320,500 20,350" fill="#EDE6DA"/>
  <g stroke="#E0D6C6" stroke-width="2">
    <line x1="95" y1="312" x2="395" y2="462"/><line x1="170" y1="275" x2="470" y2="425"/><line x1="245" y1="237" x2="545" y2="387"/>
  </g>
  <polyline points="20,170 320,20 620,170" fill="none" stroke="#9FB2AA" stroke-width="2"/>
  <line x1="320" y1="20" x2="320" y2="200" stroke="#9FB2AA" stroke-width="2"/>

  <!-- the paper globe lamp's pool of light, behind the furniture -->
  <ellipse cx="232" cy="190" rx="66" ry="40" fill="#F3DCC8" fill-opacity="0.3"/>
  <g stroke="#141414" stroke-width="2" stroke-linejoin="round" stroke-linecap="round">
    <!-- the sunset window -->
    <polygon points="430,145 590,225 590,95 430,15" fill="#F3DCC8"/>
    <polygon points="430,145 590,225 590,173 430,93" fill="#EFC3A0" stroke="none"/>
    <line x1="510" y1="55" x2="510" y2="185" stroke="#FFFFFF" stroke-width="5"/>
    <polygon points="430,145 590,225 590,95 430,15" fill="none"/>
    <!-- the run board: three lanes of the plan -->
    <polygon points="90,245 250,165 250,85 90,165" fill="#FAFBFA"/>
    <g stroke="none">
      <polygon points="105,172.5 205,122.5 205,130.5 105,180.5" fill="#2E6B66"/>
      <polygon points="105,192.5 175,157.5 175,165.5 105,200.5" fill="#7FB3AD"/>
      <polygon points="105,212.5 230,150 230,158 105,220.5" fill="#D9895B"/>
    </g>
    <!-- the big plant: broad, rounded leaves with a midrib -->
    <g>
      <path d="M296,150 C268,146 258,124 270,112 C288,114 302,130 296,150 Z" fill="#3D6B49"/>
      <path d="M336,146 C364,142 378,120 366,106 C346,108 330,126 336,146 Z" fill="#4F7F5A"/>
      <path d="M316,140 C300,112 306,80 320,66 C334,82 336,112 316,140 Z" fill="#6A9A72"/>
      <path d="M306,166 C282,170 268,158 272,146 C290,142 306,150 306,166 Z" fill="#4F7F5A"/>
      <path d="M330,164 C352,170 368,160 366,148 C348,142 332,150 330,164 Z" fill="#3D6B49"/>
      <path d="M296,150 C288,134 280,124 270,112 M336,146 C344,130 354,118 366,106 M316,140 C318,116 320,90 320,66" fill="none" stroke-width="1.2"/>
    </g>
    <!-- the rug -->
    <polygon points="300,280 440,350 330,405 190,335" fill="#CFDCD5" stroke="none"/>
    <!-- the sofa (teal), cel-shaded -->
    <polygon points="330,156 510,246 490,256 310,166" fill="#4F8A84"/>
    <polygon points="310,166 490,256 490,306 310,216" fill="#2E6B66"/>
    <polygon points="490,256 510,246 510,296 490,306" fill="#1F4744"/>
    <polygon points="310,216 490,306 440,331 260,241" fill="#4F8A84"/>
    <polygon points="260,241 440,331 440,365 260,275" fill="#2E6B66"/>
    <polygon points="330,186 350,196 280,231 260,221" fill="#5C968F"/>
    <polygon points="260,221 280,231 280,285 260,275" fill="#2E6B66"/>
    <polygon points="280,231 350,196 350,250 280,285" fill="#1F4744"/>
    <polygon points="490,266 510,276 440,311 420,301" fill="#5C968F"/>
    <polygon points="420,301 440,311 440,365 420,355" fill="#2E6B66"/>
    <polygon points="440,311 510,276 510,330 440,365" fill="#1F4744"/>
    <polygon points="262,276 268,279 266,289 262,287" fill="#7A5A3C"/>
    <polygon points="436,364 442,367 440,377 436,375" fill="#7A5A3C"/>
  </g>

  <!-- John: compact and broad, sunk into the sofa, eyes down on the diff, a short full beard, dark knit polo -->
  <g stroke="#141414" stroke-width="2" stroke-linejoin="round" stroke-linecap="round">
    <path d="M374,212 C386,206 398,204 410,206 L410,213 C398,212 386,214 376,220 Z" fill="#263131"/>
    <path d="M408,206 C414,204 420,204 426,205 L426,211 C420,211 414,212 408,213 Z" fill="#9C6B4E"/>
    <ellipse cx="430" cy="208" rx="5" ry="4" fill="#9C6B4E"/>
    <path d="M330,210 C328,228 330,246 334,260 L368,260 C372,246 376,228 376,210 C366,202 340,202 330,210 Z" fill="#3B4A4A"/>
    <path d="M361,205 C372,207 377,215 376,226 C375,240 371,252 368,260 L359,260 C363,243 365,222 361,205 Z" fill="#263131" stroke="none"/>
    <path d="M330,210 C328,228 330,246 334,260 L368,260 C372,246 376,228 376,210 C366,202 340,202 330,210 Z" fill="none"/>
    <path d="M344,205 L352,215 L360,205" fill="none" stroke-width="1.6"/>
    <path d="M347,197 L358,197 L359,207 L346,207 Z" fill="#9C6B4E"/>
    <path d="M338,180 C337,165 368,163 368,180 L367,190 C366,200 360,205 353,205 C346,205 339,200 338,190 Z" fill="#9C6B4E"/>
    <path d="M360,168 C367,171 368,178 368,184 L367,192 C365,199 362,202 358,204 C362,194 363,180 360,168 Z" fill="#7E5338" stroke="none"/>
    <path d="M338,186 C338,200 345,207 353,207 C361,207 368,200 368,186 C366,192 362,195 360,195 L346,195 C343,195 340,192 338,186 Z" fill="#231C18"/>
    <path d="M346,192 Q353,188.5 360,192 Q353,194.5 346,192 Z" fill="#231C18" stroke-width="1"/>
    <path d="M338,181 C336,164 368,160 368,180 C364,172 354,170 346,172 C342,174 340,177 338,181 Z" fill="#1A1614"/>
    <path d="M343,177.5 L350,176.5 M356,176.5 L363,177.5" fill="none" stroke-width="2.4"/>
    <path d="M343.5,181.5 L350.5,181.5 M355.5,181.5 L362.5,181.5" fill="none" stroke-width="1.8"/>
    <circle cx="347.5" cy="183.6" r="1.5" fill="#141414" stroke="none"/>
    <circle cx="359" cy="183.6" r="1.5" fill="#141414" stroke="none"/>
    <path d="M353,183 L351,189 L355,189.5" fill="none" stroke-width="1.2"/>
    <path d="M351,199.8 Q354,200.6 357,199.4" fill="none" stroke="#E9D9CB" stroke-width="1.3"/>
    <path d="M336,256 C326,262 312,266 302,270 L306,286 C318,282 330,280 344,276 L370,262 L368,256 Z" fill="#A5A992"/>
    <path d="M306,286 C318,282 330,280 344,276 L370,262 L370,268 L346,282 C332,286 318,288 308,292 Z" fill="#868A74"/>
    <path d="M300,258 L330,268 L322,280 L292,270 Z" fill="#1E2A2A"/>
    <path d="M302,261 L326,269 L320,277.5 L296,269.5 Z" fill="#7FB3AD" stroke="none"/>
    <path d="M304,264 L313,267 M301,268 L315,272.5 M306,271.5 L318,275.5" fill="none" stroke-width="1.4" stroke="#2E6B66"/>
    <path d="M302,267.2 L309,269.5" fill="none" stroke-width="1.4" stroke="#D9895B"/>
    <path d="M330,212 C324,226 322,240 326,250 L334,248 C333,238 334,226 338,214 Z" fill="#3B4A4A"/>
    <path d="M324,248 C320,254 316,258 311,262 L317,268 C322,264 328,258 334,250 Z" fill="#9C6B4E"/>
    <ellipse cx="312" cy="266" rx="5.5" ry="4" fill="#9C6B4E"/>
  </g>

  <!-- the low coffee table, and John's feet up on it -->
  <g stroke="#141414" stroke-width="2" stroke-linejoin="round" stroke-linecap="round">
    <polygon points="260,298 360,348 320,368 220,318" fill="#D9B98F"/>
    <polygon points="220,318 320,368 320,390 220,340" fill="#B8936A"/>
    <polygon points="320,368 360,348 360,370 320,390" fill="#9A774F"/>
    <path d="M302,270 C292,282 282,298 272,312 L282,318 C292,304 300,290 308,282 Z" fill="#A5A992"/>
    <path d="M308,282 C300,296 292,308 286,320 L296,324 C302,312 310,298 316,288 Z" fill="#868A74"/>
    <path d="M262,312 C257,316 261,323 270,321 L284,318 L280,310 Z" fill="#2A2A2E"/>
    <path d="M278,322 C273,326 277,333 286,331 L300,328 L296,320 Z" fill="#2A2A2E"/>
    <path d="M326,341 L336,341 L336,352 C336,354 326,354 326,352 Z" fill="#D9895B"/>
    <ellipse cx="331" cy="341" rx="5" ry="2" fill="#E8A77E" stroke-width="1.4"/>
  </g>

  <!-- the paper globe floor lamp -->
  <g stroke="#141414" stroke-width="2" stroke-linejoin="round">
    <ellipse cx="232" cy="263" rx="10" ry="4" fill="#2B2F33"/>
    <rect x="230.5" y="184" width="3" height="79" fill="#2B2F33" stroke-width="1"/>
    <circle cx="232" cy="166" r="20" fill="#FBF3E8"/>
    <path d="M214,174 A20,20 0 0 0 250,174 C244,180 220,180 214,174 Z" fill="#F1E2CF" stroke="none"/>
    <path d="M213,166 C220,170 244,170 251,166" fill="none" stroke-width="1.2"/>
  </g>

  <!-- James: tall and lean, standing easy by the board, light grey suit, open collar, round clear glasses, coffee in hand -->
  <ellipse cx="168" cy="338" rx="28" ry="8" fill="#D5CBBB"/>
  <g transform="translate(168 338) scale(0.86)" stroke="#141414" stroke-width="2.2" stroke-linejoin="round" stroke-linecap="round">
    <path d="M-16,-95 C-18,-60 -15,-30 -14,-6 L-3,-6 C-2,-35 -1,-65 0,-92 Z" fill="#C9CED3"/>
    <path d="M0,-92 C2,-65 4,-35 6,-6 L17,-6 C16,-35 16,-65 14,-95 Z" fill="#A9B1B9"/>
    <path d="M-17,-7 C-22,-6 -27,-1 -22,1 L-2,1 L-2,-7 Z" fill="#2A2A2E"/>
    <path d="M5,-7 L5,1 L24,1 C28,-1 24,-6 18,-7 Z" fill="#2A2A2E"/>
    <path d="M-24,-158 C-30,-140 -26,-110 -20,-86 L20,-86 C24,-110 26,-140 22,-158 C12,-164 -14,-164 -24,-158 Z" fill="#D5D9DD"/>
    <path d="M10,-162 C21,-158 26,-140 22,-120 C21,-108 21,-96 20,-86 L9,-86 C12,-110 13,-140 10,-162 Z" fill="#A9B1B9" stroke="none"/>
    <path d="M-24,-158 C-30,-140 -26,-110 -20,-86 L20,-86 C24,-110 26,-140 22,-158 C12,-164 -14,-164 -24,-158 Z" fill="none"/>
    <path d="M-7,-161 L0,-136 L7,-161 Z" fill="#F7F7F5"/>
    <path d="M-7,-161 L-2,-118 M7,-161 L2,-118" fill="none" stroke-width="1.6"/>
    <circle cx="0" cy="-110" r="1.6" fill="#141414" stroke="none"/>
    <path d="M-22,-156 C-34,-153 -46,-146 -58,-150 L-60,-141 C-48,-137 -36,-141 -22,-140 Z" fill="#D5D9DD"/>
    <path d="M-60,-153 C-68,-158 -74,-156 -72,-150 C-74,-146 -68,-140 -60,-141 Z" fill="#D6A07C"/>
    <path d="M-66,-156 L-70,-162" fill="none" stroke-width="1.8"/>
    <path d="M18,-158 C26,-150 29,-136 27,-123 C21,-121 13,-123 6,-125 L6,-132 C12,-131 17,-131 20,-133 C20,-142 18,-150 13,-156 Z" fill="#A9B1B9"/>
    <path d="M-2,-146 L10,-146 L10,-130 C10,-127 -2,-127 -2,-130 Z" fill="#D9895B"/>
    <path d="M10,-142 C15,-142 15,-134 10,-134" fill="none" stroke-width="1.8"/>
    <ellipse cx="4" cy="-146" rx="6" ry="2" fill="#E8A77E" stroke-width="1.4"/>
    <path d="M2,-134 C6,-136 10,-133 8,-129 C6,-127 2,-128 2,-131 Z" fill="#D6A07C" stroke-width="1.6"/>
    <path d="M-5,-171 L5,-171 L6,-158 L-6,-158 Z" fill="#D6A07C"/>
    <path d="M-12,-196 C-13,-211 12,-213 13,-196 L12,-181 C10,-173 4,-169 0,-169 C-5,-169 -11,-174 -12,-181 Z" fill="#D6A07C"/>
    <path d="M5,-201 C12,-199 13,-191 12,-181 C10,-174 6,-171 3,-170 C7,-179 8,-191 5,-201 Z" fill="#B57F5C" stroke="none"/>
    <path d="M-12,-196 C-13,-211 12,-213 13,-196 L12,-181 C10,-173 4,-169 0,-169 C-5,-169 -11,-174 -12,-181 Z" fill="none"/>
    <path d="M-13,-194 C-16,-214 6,-221 14,-206 C15,-201 14,-197 13,-193 C10,-202 2,-206 -5,-204 C-9,-201 -11,-198 -13,-194 Z" fill="#2E2724"/>
    <path d="M-6,-204 C-2,-209 4,-210 9,-207" fill="none" stroke="#5A4B44" stroke-width="1.2"/>
    <path d="M-10,-197 Q-5.5,-199.5 -1,-197 M2,-197 Q6.5,-199.5 11,-197" fill="none" stroke-width="1.8"/>
    <circle cx="-5" cy="-190" r="1.4" fill="#141414" stroke="none"/>
    <circle cx="6" cy="-190" r="1.4" fill="#141414" stroke="none"/>
    <circle cx="-5" cy="-190" r="4.6" fill="#FFFFFF" fill-opacity="0.2" stroke-width="1.5"/>
    <circle cx="6" cy="-190" r="4.6" fill="#FFFFFF" fill-opacity="0.2" stroke-width="1.5"/>
    <path d="M-0.4,-190.5 L1.4,-190.5" fill="none" stroke-width="1.5"/>
    <path d="M1,-187 L-1,-182 L2,-181.5" fill="none" stroke-width="1.3"/>
    <path d="M-4,-177 Q1,-173 6,-177" fill="none" stroke-width="1.7"/>
  </g>
</svg>
